<svg width="169" height="103" viewBox="0 0 169 103" fill="none" xmlns="http://www.w3.org/2000/svg">
<path d="M5.50153 66.5001C4.5317 65.3539 3.82637 64.2077 3.29737 63.0616L1.26953 49.4839L5.94237 53.8041L5.50153 66.5001Z" fill="#738DE0"/>
<path d="M137.046 71.085C137.046 71.085 134.137 77.1685 127.789 83.9573C119.854 92.4213 106.452 102.031 86.5267 102.031C72.5082 102.031 62.1045 97.3586 54.6985 91.716C43.0605 82.8993 38.4758 71.614 38.4758 71.614L137.046 71.085Z" fill="#273D7A"/>
<path d="M137.046 71.085C137.046 71.085 134.137 77.1685 127.789 83.9573C121 86.6023 112.624 88.8064 102.22 90.2171C81.7656 92.9503 65.8075 92.774 54.6985 91.716C43.0605 82.8993 38.4758 71.614 38.4758 71.614L137.046 71.085Z" fill="#072359"/>
<path d="M168.081 48.9549C168.081 48.9549 167.552 54.5094 165.789 61.3864C165.524 62.3562 165.083 63.5024 164.378 64.5604C162.526 67.5581 159 70.8202 153.269 73.906C152.299 74.435 151.153 74.9641 150.007 75.4931C149.125 75.9339 148.243 76.2866 147.274 76.7274C145.951 77.2564 144.629 77.7854 143.218 78.3144C138.281 80.0777 132.462 81.5766 125.585 82.9872C125.056 83.0754 124.615 83.1636 124.086 83.2517C122.763 83.5162 121.176 83.6926 119.501 83.8689C112.448 84.6624 103.102 85.1914 93.1392 85.3677C91.2877 85.3677 89.4362 85.4559 87.5847 85.4559C78.1509 85.5441 68.6288 85.2796 60.3412 84.8387C58.5778 84.7506 56.8145 84.6624 55.2275 84.486C50.3783 84.1334 46.1463 83.6044 43.0605 82.9872C38.564 82.1056 34.5083 81.1357 30.8935 80.0777C29.3947 79.6369 27.984 79.196 26.5733 78.7552C15.6407 75.1404 9.02817 70.7321 5.58967 66.6764C5.06067 66.0592 4.61984 65.5302 4.26717 64.9131C3.9145 64.3841 3.56184 63.7669 3.3855 63.2379C3.121 62.6207 2.85651 62.0917 2.76834 61.4746C1.97484 58.2124 1.35768 54.8621 1.09318 52.3052C0.74051 49.3957 0.652344 47.4561 0.652344 47.4561L84.4107 53.7159L168.169 49.0431L168.081 48.9549Z" fill="#99ADF9"/>
<path d="M167.993 48.7787C167.993 49.3958 167.552 50.1893 166.758 51.1592C164.554 53.716 159.264 57.5072 150.271 60.9457C149.125 61.3865 147.891 61.8273 146.568 62.2682C145.951 62.4445 145.334 62.709 144.717 62.8853C143.394 63.3262 141.984 63.767 140.485 64.1196C135.459 65.5303 129.64 66.8528 122.94 67.8226C121.353 68.0871 119.677 68.3517 117.914 68.528C110.508 69.4978 102.22 70.115 92.9629 70.2913C91.1996 70.2913 89.3481 70.3795 87.4966 70.3795H87.4084C77.9746 70.3795 69.2461 69.9386 61.3992 69.2333C59.6359 69.057 57.8726 68.8806 56.1974 68.7043C47.5571 67.7345 39.8866 66.3238 33.2741 64.7368C31.7753 64.3841 30.2764 63.9433 28.8658 63.5907C15.7289 59.9758 7.08857 55.4793 3.12107 51.7763C2.32757 51.071 1.71042 50.2775 1.26958 49.6603C0.740582 48.8668 0.476074 48.1615 0.476074 47.4562C0.476074 41.1963 25.1627 27.8832 87.8492 27.8832C150.536 27.795 167.993 44.4585 167.993 48.7787Z" fill="#273D7A"/>
<path d="M51.7009 35.0245L5.85423 53.804C4.0909 52.6578 1.62223 50.1891 1.1814 49.4838L50.202 34.231L51.7009 35.0245Z" fill="#072359"/>
<path d="M167.993 48.8668C167.993 49.3958 167.552 50.1893 166.758 51.1592L119.677 35.0247L121.176 34.3193L167.993 48.8668Z" fill="#072359"/>
<path d="M59.4596 39.8738L33.2741 64.6486C31.7752 64.296 30.2764 63.8551 28.8657 63.5025L57.8726 39.7856L59.4596 39.8738Z" fill="#072359"/>
<path d="M73.8308 42.7835L61.3993 69.2335C59.636 69.0572 57.8727 68.8808 56.1975 68.7045L72.2438 42.6953L73.8308 42.7835Z" fill="#072359"/>
<path d="M123.028 67.911C121.441 68.1755 119.677 68.44 118.002 68.6163L105.835 42.7835L107.51 42.6953L123.028 67.911Z" fill="#072359"/>
<path d="M92.9629 70.3793C91.1996 70.3793 89.3481 70.4674 87.4966 70.4674H87.4084L89.5244 44.4583L91.1996 44.3701L92.9629 70.3793Z" fill="#072359"/>
<path d="M150.183 60.9456C149.037 61.3865 147.802 61.8273 146.48 62.2681L114.828 39.8738L116.503 39.7856L150.183 60.9456Z" fill="#072359"/>
<path d="M93.0511 85.1917C91.1996 85.1917 89.3481 85.2798 87.4966 85.2798V70.3796L92.9629 70.2915L93.0511 85.1917Z" fill="#738DE0"/>
<path d="M123.909 83.0756C122.499 83.3401 121 83.5164 119.325 83.6927L117.914 68.5281L122.94 67.8228L123.909 83.0756Z" fill="#738DE0"/>
<path d="M153.181 73.8181C152.211 74.3471 151.065 74.8761 149.919 75.4051L146.568 62.1801L150.183 60.9458L153.181 73.8181Z" fill="#738DE0"/>
<path d="M61.3992 69.2331L60.3412 84.6623C58.5779 84.5741 56.8145 84.4859 55.2275 84.3096L56.2856 68.7041L61.3992 69.2331Z" fill="#738DE0"/>
<path d="M33.2742 64.6486L30.8055 79.9015C29.3067 79.4606 27.896 79.0198 26.4854 78.579L28.7777 63.5024L33.2742 64.6486Z" fill="#738DE0"/>
<path d="M5.94246 53.9806L4.17913 64.8251C3.82646 64.2961 3.4738 63.679 3.29746 63.15C3.03296 62.5328 2.76845 62.0038 2.68029 61.3866C1.88679 58.1244 1.26963 54.7741 1.00513 52.2173L1.26963 49.5723C1.26963 49.5723 2.76846 51.3356 3.38562 51.9528C3.91462 52.4818 5.94246 53.9806 5.94246 53.9806Z" fill="#738DE0"/>
<path d="M83.7055 54.9501C109.659 54.9501 130.698 48.9895 130.698 41.6369C130.698 34.2842 109.659 28.3237 83.7055 28.3237C57.752 28.3237 36.7126 34.2842 36.7126 41.6369C36.7126 48.9895 57.752 54.9501 83.7055 54.9501Z" fill="#072359"/>
<path d="M126.643 39.5211C126.643 39.5211 123.204 43.4004 114.74 46.7508C108.48 49.2194 99.4872 51.3354 87.1439 51.3354C80.355 51.3354 74.4479 50.7183 69.5105 49.7484C53.0234 46.5744 45.8818 39.6974 45.8818 39.6974C45.8818 39.6974 49.4967 12.8948 72.0674 3.81359C76.652 1.96209 82.1184 0.815918 88.4664 0.815918C119.501 0.815918 126.643 39.5211 126.643 39.5211Z" fill="#99ADF9"/>
<path d="M69.5105 49.7483C53.0234 46.5743 45.8818 39.6973 45.8818 39.6973C45.8818 39.6973 49.4967 12.8946 72.0674 3.81348C67.659 7.51648 63.3388 14.9225 62.6335 27.0013C61.9282 35.9943 64.0442 43.4885 69.5105 49.7483Z" fill="#7A97F4"/>
<path d="M126.643 39.5211C126.643 39.5211 123.204 43.4004 114.74 46.7507C113.418 41.8134 111.39 37.4051 111.39 37.4051C111.39 37.4051 103.102 39.1684 99.3991 31.3216C95.6961 23.4748 104.601 17.8321 104.601 17.8321C104.601 17.8321 102.485 11.0433 91.5523 6.63492C80.6196 2.22659 71.8911 3.81359 71.8911 3.81359C76.4758 1.96209 81.9421 0.815918 88.2901 0.815918C119.501 0.815918 126.643 39.5211 126.643 39.5211Z" fill="#C2D1FF"/>
<path d="M91.1115 22.946C92.4262 22.946 93.4919 21.9197 93.4919 20.6537C93.4919 19.3876 92.4262 18.3613 91.1115 18.3613C89.7968 18.3613 88.731 19.3876 88.731 20.6537C88.731 21.9197 89.7968 22.946 91.1115 22.946Z" fill="#C2D1FF"/>
<path d="M82.8237 25.1497C83.8462 25.1497 84.6752 24.3602 84.6752 23.3864C84.6752 22.4125 83.8462 21.623 82.8237 21.623C81.8011 21.623 80.9722 22.4125 80.9722 23.3864C80.9722 24.3602 81.8011 25.1497 82.8237 25.1497Z" fill="#C2D1FF"/>
<path d="M88.3783 37.0524C90.3747 37.0524 91.9931 35.4734 91.9931 33.5257C91.9931 31.578 90.3747 29.999 88.3783 29.999C86.3818 29.999 84.7634 31.578 84.7634 33.5257C84.7634 35.4734 86.3818 37.0524 88.3783 37.0524Z" fill="#C2D1FF"/>
</svg>
