<svg width="212" height="212" viewBox="0 0 212 212" fill="none" xmlns="http://www.w3.org/2000/svg">
<path d="M53.3723 37.0584C53.3723 37.0584 85.2137 61.2209 133.62 16.0411C176.61 -24.083 211.712 39.2235 211.958 69.54C212.276 108.812 168.968 140.235 189.985 166.029C211.003 191.823 148.305 234.418 114.514 197.555C72.4787 151.699 61.091 188.957 37.1312 188.957C19.9352 188.957 -15.3703 146.229 8.47112 114.441C28.5331 87.6914 17.5917 78.8137 12.2931 69.54C4.65011 56.1652 22.8015 19.8624 53.3723 37.0584Z" fill="#DEE9FF"/>
<path d="M195.367 20.5875C195.367 21.182 195.341 21.7676 195.289 22.3476C194.827 27.5877 192.331 32.4385 188.336 35.8609C184.341 39.2833 179.165 41.0052 173.916 40.6578C168.667 40.3104 163.762 37.9212 160.253 34.0022C156.744 30.0831 154.91 24.9457 155.142 19.6903C155.374 14.435 157.656 9.47961 161.497 5.8856C165.338 2.29159 170.434 0.344737 175.693 0.462041C180.953 0.579344 185.957 2.75148 189.634 6.51319C193.311 10.2749 195.369 15.3271 195.367 20.5875Z" fill="#A2BDFF"/>
<path d="M177.784 22.1282C176.486 23.138 174.671 25.1491 175.219 29.6241C174.611 31.361 172.447 34.679 172.447 36.2658C172.447 37.8526 169.85 38.1418 169.561 37.7078C169.273 37.2738 169.129 31.7931 167.542 30.7833C165.955 29.7734 166.243 25.1571 166.243 25.1571C166.243 25.1571 166.82 23.4258 164.945 22.2718C163.07 21.1178 161.763 18.3767 163.427 16.7898C165.089 15.2029 160.617 14.1931 160.04 13.0391C159.795 12.5491 158.854 11.4522 157.856 10.3587C160.014 6.70319 163.269 3.82012 167.158 2.11841C168.632 3.65841 169.908 5.62975 169.561 7.70133C169.619 8.71115 174.002 10.298 171.855 12.4613C169.706 14.6253 166.789 17.6553 171.855 18.6646C176.919 19.6759 179.083 21.1179 177.784 22.1282Z" fill="#0E84E5"/>
<path d="M189.308 6.18736C188.229 8.46376 185.523 10.2987 183.988 10.2987C182.257 8.42274 178.506 11.0202 178.154 7.99056C177.949 6.22488 179.963 3.48382 181.68 1.4989C184.542 2.46996 187.149 4.07233 189.308 6.18736Z" fill="#0E84E5"/>
<path d="M195.289 22.3476C194.86 27.3289 192.586 31.9704 188.913 35.3628C188.246 34.7251 187.684 33.9779 187.883 33.3807C188.316 32.0823 190.076 29.3413 189.773 27.6102C189.49 25.9944 190.982 21.1069 195.289 22.3476Z" fill="#0E84E5"/>
<path d="M162.529 122.356C161.885 126.33 160.818 130.225 159.348 133.973C149.765 158.519 124.059 173.896 97.0068 169.477C82.0716 167.032 68.7185 158.757 59.8825 146.47C51.0465 134.183 47.4508 118.891 49.8857 103.954C50.0095 103.196 50.1538 102.432 50.3045 101.689C56.4078 71.8283 85.0593 51.8754 115.408 56.8326C124.464 58.2967 133.03 61.9351 140.371 67.4361C142.783 69.2373 145.047 71.2298 147.139 73.3944C153.352 79.7849 157.98 87.5428 160.653 96.0456C163.326 104.548 163.968 113.559 162.529 122.355V122.356Z" fill="#699CFF"/>
<path d="M159.348 133.973C148.48 140.969 135.646 147.441 121.497 152.792C107.09 158.238 92.9419 161.918 79.9748 163.845C49.5034 168.388 25.5728 163.312 20.1808 149.049C15.1313 135.728 27.5511 117.684 50.3046 101.689C50.154 102.432 50.0096 103.197 49.8859 103.954C49.4312 106.728 49.1844 109.532 49.1477 112.343C36.0381 122.465 29.2157 132.378 31.9051 139.489C34.5199 146.403 45.6218 149.345 61.4152 148.511C76.8552 147.698 96.7792 143.25 117.634 135.366C135.67 128.539 151.487 120.241 163.264 111.905C179.031 100.758 187.582 89.5422 184.631 81.7176C181.596 73.6849 167.115 71.0076 147.139 73.395C145.047 71.2304 142.783 69.2379 140.371 67.4367C168.333 64.2051 189.887 69.4863 194.967 82.9197C200.409 97.2877 185.567 117.124 159.348 133.973Z" fill="#0E84E5"/>
</svg>
